<?xml version="1.0" encoding="utf-8"?>
<!DOCTYPE svg PUBLIC "-//W3C//DTD SVG 20010904//EN" "http://www.w3.org/TR/2001/REC-SVG-20010904/DTD/svg10.dtd">
<svg version="1.0" width="90pt" height="90pt" viewBox="0 0 90 90" preserveAspectRatio="xMidYMid meet" xmlns="http://www.w3.org/2000/svg">
  <g transform="translate(0,90)scale(.075,.075)">
    <path id="path1" fill="#FFFFFF" d="M 270 -895 l 0 25 232 2 233 3 2 231 c 1 210 0 234 -17 262 -17 27 -26 32 -80 38 -54 6 -60 9 -60 29 0 20 6 24 48 27 73 7 115 -9 143 -56 23 -40 23 -46 24 -286 l 0 -245 53 -3 c 48 -3 52 -5 52 -28 l 0 -24 -315 0 -315 0 0 25 z " />
  </g>
</svg>